<?xml version="1.0" encoding="UTF-8" standalone="no"?>
<!-- Generator: Adobe Illustrator 15.0.0, SVG Export Plug-In . SVG Version: 6.00 Build 0)  -->

<svg
   xmlns:dc="http://purl.org/dc/elements/1.1/"
   xmlns:cc="http://creativecommons.org/ns#"
   xmlns:rdf="http://www.w3.org/1999/02/22-rdf-syntax-ns#"
   xmlns:svg="http://www.w3.org/2000/svg"
   xmlns="http://www.w3.org/2000/svg"
   xmlns:sodipodi="http://sodipodi.sourceforge.net/DTD/sodipodi-0.dtd"
   xmlns:inkscape="http://www.inkscape.org/namespaces/inkscape"
   version="1.1"
   id="Layer_1"
   x="0px"
   y="0px"
   width="170.66203"
   height="167.41037"
   viewBox="0 0 170.66204 167.41037"
   enable-background="new 0 0 195.713 255.118"
   xml:space="preserve"
   inkscape:version="0.92.3 (2405546, 2018-03-11)"
   sodipodi:docname="Misrad_habitahon.svg"><metadata
   id="metadata83"><rdf:RDF><cc:Work
       rdf:about=""><dc:format>image/svg+xml</dc:format><dc:type
         rdf:resource="http://purl.org/dc/dcmitype/StillImage" /><dc:title></dc:title></cc:Work></rdf:RDF></metadata><defs
   id="defs81">
	
	
	
	
	
	

		
	
		
	
		
	<clipPath
   id="clipPath986"
   clipPathUnits="userSpaceOnUse"><path
     inkscape:connector-curvature="0"
     id="path984"
     d="M 0,841.89 H 595.276 V 0 H 0 Z" /></clipPath></defs><sodipodi:namedview
   pagecolor="#ffffff"
   bordercolor="#666666"
   borderopacity="1"
   objecttolerance="10"
   gridtolerance="10"
   guidetolerance="10"
   inkscape:pageopacity="0"
   inkscape:pageshadow="2"
   inkscape:window-width="1920"
   inkscape:window-height="1005"
   id="namedview79"
   showgrid="false"
   fit-margin-top="0"
   fit-margin-left="0"
   fit-margin-right="0"
   fit-margin-bottom="0"
   inkscape:zoom="1.5721357"
   inkscape:cx="227.591"
   inkscape:cy="-7.579395"
   inkscape:window-x="-9"
   inkscape:window-y="-9"
   inkscape:window-maximized="1"
   inkscape:current-layer="Layer_1"
   showguides="true"
   inkscape:snap-bbox="true"
   inkscape:bbox-paths="true"
   inkscape:bbox-nodes="true"
   inkscape:snap-bbox-edge-midpoints="true"
   inkscape:snap-bbox-midpoints="true"
   inkscape:object-paths="true"
   inkscape:snap-intersection-paths="true"
   inkscape:snap-smooth-nodes="true"
   inkscape:snap-object-midpoints="true"
   inkscape:snap-center="true"
   inkscape:snap-global="true"
   inkscape:guide-bbox="true" />

<path
   style="fill:#1c5d8e;fill-opacity:1;stroke-width:0.75030333"
   d="m 81.147953,0 -21.39881,15.51317 v 107.90887 h 21.39881 z m 9.21147,0 V 123.42204 H 111.75824 V 15.51317 Z M 50.394394,22.297079 34.817852,33.588912 v 83.569998 c 0,12.67622 1.093884,22.47345 24.504203,22.47345 h 21.090208 4.19378 26.733357 c 23.41032,0 24.50697,-9.79723 24.50697,-22.47345 V 33.588912 L 120.26706,22.297079 v 93.128651 c 0,12.40809 -3.89221,15.60136 -17.01215,15.60136 h -18.648867 -4.19378 -13.00572 c -13.119935,0 -17.012149,-3.19327 -17.012149,-15.60136 z m -21.285839,15.433277 -13.72213,9.947167 v 77.362107 c 0,18.089 6.737043,28.76688 30.147362,28.76688 H 96.212 125.12767 c 23.41032,0 30.15011,-10.67788 30.15011,-28.76688 V 47.677523 l -13.72213,-9.947167 v 85.576084 c 0,15.20783 -10.66505,21.24451 -27.3313,21.24451 H 96.212 56.439854 c -16.666237,0 -27.331299,-6.03668 -27.331299,-21.24451 z M 10.974956,50.876602 0,58.831579 v 77.808351 0.11851 c 0.0014,0.006 0.0042,0.0113 0.0056,0.0165 0.03456,8.113 3.271889,15.88405 9.007554,21.62201 5.39881,5.37923 12.60185,8.56344 20.213977,8.93592 l 43.676612,0.0662 v 0.0113 l 4.52169,-0.006 3.40298,0.006 v -0.008 l 60.606077,-0.0688 c 7.61213,-0.37248 14.81517,-3.55669 20.21398,-8.93592 5.73567,-5.73796 8.97302,-13.50901 9.00756,-21.62201 0.001,-0.006 0.004,-0.0113 0.006,-0.0165 v -0.11907 -77.80835 l -10.97532,-7.954977 v 72.862317 c 0,20.82439 -6.43328,34.41281 -27.25689,34.41281 H 80.828583 38.232104 c -20.823608,0 -27.256894,-13.58842 -27.256894,-34.41281 z"
   id="polygon7-9"
   inkscape:connector-curvature="0"
   sodipodi:nodetypes="ccccccccccccssccssccssccsscccsscssccsscssccccccccccccccccccccsscscc" /></svg>